HIERARCHY
ROOT torus_large
{
	OFFSET 0.000000 0.000000 0.000000
	CHANNELS 6 Xposition Yposition Zposition Yrotation Xrotation Zrotation
	End Site
	{
		OFFSET 0.000000 0.000000 0.000000
	}
}
MOTION
Frames: 160
Frame Time: 0.008333334
-1.556943 2.118910 2.568959 66.471760 45.457300 -170.995400 
-1.558765 2.120656 2.568882 67.376880 45.811740 -170.432800 
-1.560608 2.122929 2.568618 68.228230 46.086050 -169.741700 
-1.561741 2.125708 2.567992 69.098430 45.934270 -169.369500 
-1.563598 2.127945 2.567039 69.952460 45.877160 -168.919800 
-1.566133 2.129982 2.565412 70.563190 45.619430 -168.567000 
-1.568532 2.130757 2.563878 71.083410 45.637540 -168.192100 
-1.570801 2.132049 2.561579 71.777530 45.338570 -167.659300 
-1.572901 2.132359 2.560306 71.772650 45.201020 -167.657500 
-1.573830 2.132852 2.559622 71.897350 45.179490 -167.633200 
-1.574179 2.133044 2.559657 72.402530 45.170940 -167.191000 
-1.573839 2.132167 2.561588 72.404720 45.402190 -166.873100 
-1.572008 2.131615 2.565249 73.237210 45.554280 -166.224200 
-1.570524 2.130816 2.571868 73.877430 45.875760 -165.437300 
-1.568372 2.130952 2.581442 74.571640 45.944490 -164.840600 
-1.566476 2.130033 2.593141 76.112210 46.375750 -163.401300 
-1.563677 2.129434 2.606655 77.461880 46.677920 -162.332300 
-1.560719 2.128770 2.621627 79.283850 46.875790 -160.624400 
-1.557892 2.126756 2.637378 81.185430 47.061770 -158.964500 
-1.555866 2.125319 2.653358 83.036990 47.059320 -157.373900 
-1.553666 2.122730 2.670216 85.363320 47.155570 -155.339800 
-1.551126 2.119059 2.686809 87.148460 47.067790 -153.775100 
-1.548602 2.114435 2.704794 89.101620 46.969030 -152.176600 
-1.545838 2.110289 2.721697 91.217380 46.707640 -150.531000 
-1.543307 2.106208 2.738089 93.405400 46.725380 -148.607700 
-1.541913 2.102985 2.752481 95.355070 46.498830 -147.091400 
-1.541214 2.100478 2.764966 97.131920 45.787950 -146.110100 
-1.540825 2.097780 2.776671 98.726450 45.673270 -144.699000 
-1.540257 2.095934 2.787216 100.486500 44.749290 -143.889300 
-1.540880 2.093565 2.796259 102.167100 44.404460 -142.698400 
-1.542237 2.092511 2.804322 103.860100 43.647480 -141.750200 
-1.542692 2.090470 2.812319 105.177300 42.934770 -141.222600 
-1.543515 2.088708 2.819551 107.056700 42.188110 -139.944400 
-1.544107 2.086082 2.826192 108.721400 41.581150 -139.273600 
-1.544217 2.084779 2.833911 110.094200 40.957590 -138.995700 
-1.543289 2.083329 2.842299 111.460900 40.090320 -138.633400 
-1.541714 2.082917 2.850926 113.098100 39.363170 -138.310500 
-1.538212 2.082539 2.859662 114.529600 38.704860 -137.908400 
-1.537015 2.082025 2.868142 115.666900 37.862020 -137.724800 
-1.537117 2.079554 2.872990 116.037000 36.837470 -137.838700 
-1.538195 2.076614 2.875602 116.389400 36.156140 -137.948100 
-1.539365 2.074183 2.877389 116.711800 35.890930 -137.744500 
-1.539537 2.072977 2.878986 117.069600 35.727730 -137.601400 
-1.539273 2.071424 2.879899 117.527200 35.617810 -137.186500 
-1.540320 2.070511 2.879749 117.415500 35.622380 -137.205700 
-1.542490 2.069403 2.879156 117.380300 35.579950 -137.219200 
-1.545287 2.067766 2.878932 117.221400 35.508840 -137.107600 
-1.548669 2.066514 2.878998 117.224000 35.565110 -136.928400 
-1.553181 2.066236 2.879284 117.198500 35.430570 -136.866500 
-1.559522 2.064872 2.879912 117.452300 35.169720 -136.938400 
-1.567868 2.064881 2.881460 117.979600 34.505170 -136.894500 
-1.575692 2.065658 2.883585 118.595500 34.007820 -136.645800 
-1.584042 2.069237 2.885681 119.613500 33.469580 -136.109300 
-1.592624 2.074366 2.888526 120.349200 33.023100 -135.708000 
-1.603310 2.080453 2.891470 121.397200 32.773960 -135.007200 
-1.614391 2.086384 2.894402 122.612700 32.253950 -134.469500 
-1.626646 2.092705 2.897624 123.665700 31.770190 -134.206200 
-1.640887 2.098064 2.900557 124.470400 31.511730 -133.835600 
-1.656191 2.102614 2.905107 125.453500 30.809530 -133.567600 
-1.670994 2.106407 2.910705 125.992400 30.003990 -133.766400 
-1.686901 2.109518 2.917896 127.071800 29.013850 -132.922400 
-1.702897 2.112894 2.925185 127.439800 27.769520 -133.080200 
-1.719656 2.116134 2.933260 127.802000 26.594480 -133.103000 
-1.735697 2.119800 2.942036 128.297200 25.423920 -132.887900 
-1.751476 2.124537 2.952437 128.547800 24.421330 -132.731800 
-1.767223 2.130058 2.962519 129.103100 23.363280 -132.203900 
-1.783338 2.135634 2.973997 129.692800 21.931690 -132.032100 
-1.798984 2.140370 2.985562 130.263300 20.661720 -131.492300 
-1.816137 2.145117 2.998849 130.443200 19.191440 -131.378400 
-1.833751 2.149485 3.011596 130.701900 17.532450 -131.207900 
-1.850715 2.152708 3.024349 130.871200 15.926220 -131.006700 
-1.866852 2.156174 3.037315 131.019500 14.074040 -130.851400 
-1.882666 2.160954 3.050688 131.084200 12.516130 -130.488300 
-1.898802 2.166198 3.065530 130.777300 10.920490 -130.176200 
-1.915244 2.172367 3.080859 130.590000 9.192759 -129.962200 
-1.935035 2.178295 3.098315 130.673500 7.617294 -129.420400 
-1.955371 2.185057 3.119210 130.782500 5.825819 -128.885000 
-1.977713 2.191422 3.142132 131.214600 3.813203 -128.361100 
-2.002437 2.198402 3.168096 131.851100 1.661540 -127.726200 
-2.025609 2.204949 3.195565 132.785800 -0.551727 -126.998400 
-2.049526 2.211691 3.224102 133.704700 -2.454956 -126.373100 
-2.071861 2.217790 3.251716 135.095600 -4.309540 -125.795600 
-2.093198 2.222970 3.279248 136.719300 -6.018738 -125.077900 
-2.114309 2.225535 3.305305 138.102500 -7.674927 -124.701500 
-2.135175 2.226271 3.331390 139.863800 -9.204926 -124.462700 
-2.154723 2.225341 3.355336 141.700600 -10.947420 -124.414200 
-2.171914 2.223033 3.377657 143.834700 -12.450710 -124.265600 
-2.187032 2.221419 3.398479 145.977500 -13.921750 -124.361900 
-2.198754 2.218413 3.416918 148.621900 -15.331970 -124.575600 
-2.206726 2.214269 3.433608 151.516900 -16.625550 -124.885800 
-2.212593 2.209785 3.447478 154.104200 -17.499510 -125.312000 
-2.214180 2.204717 3.456305 156.702800 -18.314390 -126.129600 
-2.213699 2.201017 3.460970 158.610800 -18.662020 -126.648500 
-2.207938 2.199600 3.460357 160.383300 -18.922060 -127.291100 
-2.200562 2.202030 3.457853 161.589500 -18.867340 -127.559500 
-2.188399 2.208498 3.451746 162.431900 -18.502320 -127.585300 
-2.174352 2.217867 3.442679 162.348500 -17.951630 -127.168300 
-2.159169 2.228831 3.432719 162.119300 -17.247620 -126.643100 
-2.142860 2.240601 3.419575 161.511200 -16.608700 -126.128200 
-2.128723 2.253940 3.408903 161.001100 -15.509700 -125.063700 
-2.117549 2.264739 3.404902 161.001400 -14.783690 -124.508000 
-2.110979 2.271818 3.405818 161.728300 -14.797610 -124.338500 
-2.109231 2.275565 3.408260 162.266700 -14.865050 -124.338400 
-2.108225 2.277261 3.410217 162.613400 -15.014500 -124.458000 
-2.107363 2.278855 3.410634 162.904800 -15.205260 -124.545700 
-2.106088 2.281265 3.409977 163.035700 -15.167970 -124.532700 
-2.104606 2.283572 3.410279 163.195200 -15.362730 -124.781700 
-2.102352 2.285408 3.412028 163.513100 -15.372010 -124.848000 
-2.100119 2.286631 3.415215 163.893900 -15.720830 -125.115200 
-2.096900 2.287508 3.419824 164.131100 -15.852480 -125.143800 
-2.093713 2.287403 3.424907 164.221200 -16.246520 -125.280000 
-2.089721 2.285439 3.430787 164.702900 -16.837070 -125.334000 
-2.085581 2.282504 3.436975 165.000700 -17.402100 -125.535900 
-2.082785 2.276762 3.443688 165.619200 -18.242550 -125.791800 
-2.079198 2.269152 3.450650 165.935700 -18.981540 -125.983400 
-2.076169 2.260420 3.458142 166.756400 -19.962100 -126.616100 
-2.072027 2.250498 3.465684 167.566100 -20.941410 -127.269500 
-2.068695 2.240139 3.473597 168.555300 -22.004580 -127.825700 
-2.064369 2.228844 3.481393 169.437300 -23.198000 -128.472600 
-2.060272 2.216623 3.490249 170.422800 -24.496370 -129.043400 
-2.056785 2.203918 3.499384 171.164700 -25.520540 -129.485500 
-2.051844 2.192218 3.509049 171.966100 -26.519100 -130.288400 
-2.046056 2.181754 3.520123 173.121500 -27.198240 -130.819700 
-2.039801 2.172140 3.530523 173.897800 -27.879390 -131.404800 
-2.034546 2.163982 3.541704 174.658900 -28.358030 -131.741000 
-2.028180 2.156883 3.552534 175.761600 -29.010650 -132.350400 
-2.022021 2.151493 3.564939 176.258400 -29.265110 -132.494000 
-2.017144 2.146961 3.577345 176.811900 -29.460850 -132.487500 
-2.010959 2.142803 3.588982 177.194700 -29.969670 -132.722200 
-2.005714 2.139724 3.600011 177.772900 -30.425960 -132.862400 
-2.000608 2.136423 3.609726 178.435600 -30.573760 -132.927400 
-1.995084 2.134269 3.618518 179.025900 -30.953490 -133.246300 
-1.990192 2.133477 3.627713 179.534000 -31.116640 -133.613200 
-1.985307 2.134074 3.636534 -179.887800 -31.088470 -134.034700 
-1.979053 2.135580 3.644506 -179.194600 -30.768070 -134.185100 
-1.970506 2.139365 3.651326 -177.871100 -30.479030 -134.778400 
-1.961800 2.145288 3.658828 -177.075600 -29.883700 -135.239900 
-1.953620 2.152558 3.664727 -176.161100 -29.352420 -135.886500 
-1.947105 2.160296 3.667987 -175.383800 -28.769130 -136.300900 
-1.943671 2.168356 3.668543 -174.567700 -28.058470 -136.821400 
-1.943093 2.176459 3.668445 -174.426000 -27.252900 -137.137700 
-1.942991 2.184656 3.666724 -174.243600 -26.495480 -137.476500 
-1.943732 2.191807 3.663158 -173.622500 -25.843410 -137.774300 
-1.943764 2.198456 3.660530 -173.392200 -25.151820 -138.183900 
-1.943077 2.205440 3.657681 -173.129500 -24.464540 -138.516400 
-1.943065 2.212162 3.654487 -172.777600 -23.652220 -138.646100 
-1.942970 2.218115 3.650450 -172.505300 -22.934510 -139.090900 
-1.942349 2.223901 3.645242 -171.644500 -22.271790 -139.616600 
-1.944543 2.228242 3.640980 -171.909800 -21.472410 -139.815200 
-1.946497 2.231691 3.635312 -171.458700 -21.032260 -140.157700 
-1.950472 2.233027 3.628892 -171.446000 -20.731750 -140.544600 
-1.954221 2.232982 3.622664 -171.354600 -20.412450 -140.591200 
-1.959270 2.231143 3.618062 -171.770100 -20.377590 -140.667300 
-1.963787 2.227097 3.613784 -172.277300 -20.632350 -140.760800 
-1.968271 2.221592 3.610795 -172.627600 -20.988950 -140.571700 
-1.972131 2.214876 3.609222 -173.076000 -21.465790 -140.399100 
-1.974855 2.205703 3.609259 -173.223800 -22.153380 -140.443300 
-1.976479 2.195865 3.610134 -173.752800 -23.139680 -140.220700 
-1.978478 2.184305 3.612849 -174.030200 -23.858150 -139.946500 
-1.978315 2.172724 3.617456 -174.539400 -24.709590 -139.794700 
